<svg xmlns="http://www.w3.org/2000/svg" width="226" height="709" viewBox="0 0 226 709"><defs><style>.a,.c{fill:#fff;}.b{fill:#4c387a;}.c{stroke:#707070;}.d{stroke:none;}.e{fill:none;}</style></defs><g transform="translate(-1517 33.185)"><g transform="translate(1517 137.883)"><rect class="a" width="100" height="101" rx="25" transform="translate(0 -0.068)"/><g transform="translate(24.351 25.208)"><path class="b" d="M48.122,42.587a5.535,5.535,0,0,0-5.2,3.69H29.341a5.682,5.682,0,0,0-2.491-2.952l7.638-13.652a4.76,4.76,0,0,0,.719,0,6.032,6.032,0,0,0,.812,0L42.9,39.985a1.845,1.845,0,0,0,1.531.756,1.734,1.734,0,0,0,1.015-.314,1.845,1.845,0,0,0,.517-2.546L39.285,27.828a5.424,5.424,0,0,0,1.457-3.69,5.482,5.482,0,0,0-9.224-4.059L13.069,8.309a5.258,5.258,0,0,0,0-.775,5.659,5.659,0,1,0-1.845,4.059l18.449,11.77a5.259,5.259,0,0,0,0,.775A5.535,5.535,0,0,0,31.2,27.92L22.976,42.679A5.535,5.535,0,0,0,18.6,48.121a1.845,1.845,0,0,0,3.69,0,1.845,1.845,0,1,1,1.845,1.845,1.845,1.845,0,1,0,0,3.69,5.535,5.535,0,0,0,5.2-3.69H42.919a5.535,5.535,0,1,0,5.2-7.379ZM35.208,22.293a1.845,1.845,0,1,1-1.845,1.845A1.845,1.845,0,0,1,35.208,22.293ZM7.535,9.379A1.845,1.845,0,1,1,9.379,7.535,1.845,1.845,0,0,1,7.535,9.379ZM48.122,49.966a1.845,1.845,0,1,1,1.845-1.845A1.845,1.845,0,0,1,48.122,49.966Z" transform="translate(-2 -2)"/><path class="b" d="M11.224,27.69H9.379V25.845a1.845,1.845,0,0,0-3.69,0V27.69H3.845a1.845,1.845,0,1,0,0,3.69H5.69v1.845a1.845,1.845,0,0,0,3.69,0V31.379h1.845a1.845,1.845,0,1,0,0-3.69Z" transform="translate(-2 16.587)"/><path class="b" d="M25.845,11.379H27.69v1.845a1.845,1.845,0,0,0,3.69,0V11.379h1.845a1.845,1.845,0,1,0,0-3.69H31.379V5.845a1.845,1.845,0,0,0-3.69,0V7.69H25.845a1.845,1.845,0,1,0,0,3.69Z" transform="translate(16.587 -0.31)"/><path class="b" d="M15.379,21.224V19.379h1.845a1.845,1.845,0,1,0,0-3.69H15.379V13.845a1.845,1.845,0,0,0-3.69,0V15.69H9.845a1.845,1.845,0,1,0,0,3.69H11.69v1.845a1.845,1.845,0,0,0,3.69,0Z" transform="translate(3.069 6.448)"/><path class="b" d="M7.845,19h0A1.845,1.845,0,1,0,9.69,20.845,1.845,1.845,0,0,0,7.845,19Z" transform="translate(1.379 12.362)"/><path class="b" d="M28.845,15h0a1.845,1.845,0,1,0,1.845,1.845A1.845,1.845,0,0,0,28.845,15Z" transform="translate(19.122 8.983)"/><path class="b" d="M18.845,8.69a1.845,1.845,0,1,0,0-3.69h0a1.845,1.845,0,1,0,0,3.69Z" transform="translate(10.673 0.535)"/><path class="b" d="M5.845,14.69a1.845,1.845,0,1,0,0-3.69h0a1.845,1.845,0,1,0,0,3.69Z" transform="translate(-0.31 5.604)"/></g></g><g transform="translate(1642.224 89.081)"><rect class="a" width="101" height="99" rx="25" transform="translate(-0.224 -0.266)"/><g transform="translate(24.588 23.955)"><path class="b" d="M27.831,2a25.828,25.828,0,0,0-25.7,23.374A1.623,1.623,0,0,0,2,25.983a2.62,2.62,0,0,0,0,.369v1.476A25.828,25.828,0,0,0,43.734,48.121a1.853,1.853,0,1,0-2.288-2.915,21.6,21.6,0,0,1-8.21,4.022,1.992,1.992,0,0,0-.406-.646,1.31,1.31,0,0,1-.166-1.679l1.218-1.845a5.073,5.073,0,0,0,.314-5.036l-1.328-2.657A5.037,5.037,0,0,0,25.783,35.3l-5.756,3.6a1.513,1.513,0,0,1-.48.184l-9.741,1.66A22.138,22.138,0,0,1,5.693,27.828h5.221a7.084,7.084,0,0,0,5-2.065l2.473-2.473a3.284,3.284,0,0,1,2.38-1,7.011,7.011,0,0,0,6.752-5,1.845,1.845,0,1,0-3.524-1.07,3.358,3.358,0,0,1-3.229,2.38,7.084,7.084,0,0,0-5,2.065l-2.473,2.473a3.284,3.284,0,0,1-2.38,1H6.025A22.138,22.138,0,0,1,20.784,6.852l2.6,5.2a1.845,1.845,0,0,0,1.679,1.015,1.716,1.716,0,0,0,.922-.2,1.845,1.845,0,0,0,.812-2.472L24.584,5.967a21.714,21.714,0,0,1,17.748,5.258l-3.118,5.11a4.8,4.8,0,0,0,2.6,7.029,1.144,1.144,0,0,1,.775,1.07v.424a4.815,4.815,0,0,0,4.815,4.815H49.97a21.824,21.824,0,0,1-3.321,9.962,1.853,1.853,0,0,0,3.136,1.974A25.828,25.828,0,0,0,27.831,2ZM20.157,42.587A5.129,5.129,0,0,0,22,41.941l5.756-3.45a1.254,1.254,0,0,1,1.052-.148,1.347,1.347,0,0,1,.83.683l1.328,2.657a1.347,1.347,0,0,1-.092,1.347l-1.218,1.845a5.073,5.073,0,0,0-.332,4.981H27.9A22.028,22.028,0,0,1,12.74,43.8ZM46.28,24.858v-.424A4.778,4.778,0,0,0,43,19.877a1.2,1.2,0,0,1-.7-.683,1.088,1.088,0,0,1,.092-.959l2.6-4.354a21.954,21.954,0,0,1,4.981,12.1H47.405a1.125,1.125,0,0,1-1.125-1.125Z" transform="translate(-1.996 -2)"/></g></g><g transform="translate(1517 260.998)"><rect class="a" width="100" height="101" rx="25" transform="translate(0 -0.183)"/><g transform="translate(24.351 29.936)"><path class="b" d="M47.651,9.354A19.058,19.058,0,0,0,33.833,4a21.272,21.272,0,0,0-3.062.314,19.925,19.925,0,0,0-2.952.812,19.445,19.445,0,0,0-13.578.24,1.821,1.821,0,0,0,1.365,3.376,15.626,15.626,0,0,1,7.177-1.052A19.39,19.39,0,0,0,18.612,12.1a1.845,1.845,0,0,0-.553,0L7.543,16.125a16.862,16.862,0,0,1,2.4-3.487,1.845,1.845,0,1,0-2.694-2.509A19.353,19.353,0,0,0,27.837,41.62a19.371,19.371,0,0,0,6.439,1.125h.48a19.1,19.1,0,0,0,7.1-1.531,1.845,1.845,0,1,0-1.439-3.395A15.718,15.718,0,1,1,46.673,33a1.845,1.845,0,0,0,2.915,2.251,19.481,19.481,0,0,0,4.077-12.342A19.242,19.242,0,0,0,47.651,9.354ZM6.344,20.423l9.686-3.505a19.887,19.887,0,0,0-1.107,6.918v.553L6.307,27.636a15.275,15.275,0,0,1-.351-7.029ZM7.709,30.976l7.822-2.933a18.762,18.762,0,0,0,2.73,6.106l-5.682,2.2a15.94,15.94,0,0,1-4.87-5.295Zm13.671,8.08a15.368,15.368,0,0,1-4.04-.553l3.431-1.291.166.166a17.158,17.158,0,0,0,1.845,1.587,12.914,12.914,0,0,1-1.4.092Z" transform="translate(-1.99 -3.995)"/><path class="b" d="M28.047,12.514A13.689,13.689,0,0,0,23.8,8.271a1.845,1.845,0,0,0-1.992,3.1A10.165,10.165,0,0,1,26.5,20.779a1.845,1.845,0,0,0,1.734,1.956h.111A1.845,1.845,0,0,0,30.187,21a14.3,14.3,0,0,0-2.14-8.486Z" transform="translate(14.109 -0.588)"/><path class="b" d="M24.845,17h0a1.845,1.845,0,1,0,1.845,1.845A1.845,1.845,0,0,0,24.845,17Z" transform="translate(15.761 6.992)"/></g></g><g transform="translate(1642.224 453.987)"><rect class="a" width="101" height="100" rx="25" transform="translate(-0.224 -0.172)"/><g transform="translate(24.588 24.314)"><path class="b" d="M27.832,2a25.828,25.828,0,0,0-7.951,1.254A1.845,1.845,0,0,0,21.024,6.76a22.139,22.139,0,0,1,19.021,2.62H35.377a6.715,6.715,0,0,0-4.723,1.956,5.977,5.977,0,0,1-4.188,1.734H11.376a21.88,21.88,0,0,1,2.841-2.693,1.845,1.845,0,0,0-2.288-2.841,26.548,26.548,0,0,0-5.535,6.088,1.845,1.845,0,0,0-.517.793,25.828,25.828,0,0,0-3.69,10.921A1.845,1.845,0,0,0,2,25.983a2.638,2.638,0,0,0,0,.406q0,.719,0,1.439a25.826,25.826,0,0,0,11.508,21.49,1.845,1.845,0,0,0,1,.593,25.57,25.57,0,0,0,13.32,3.745A25.828,25.828,0,1,0,27.832,2ZM5.693,27.828H16.32a19.313,19.313,0,0,0,8.65-2.046,15.829,15.829,0,0,1,6.995-1.643H42.591a1.845,1.845,0,1,0,0-3.69H31.964a19.313,19.313,0,0,0-8.65,2.046,15.829,15.829,0,0,1-6.995,1.643H6.025c.111-.627.221-1.236.387-1.845h6.66a1.845,1.845,0,1,0,0-3.69H7.723a19.5,19.5,0,0,1,.959-1.845H26.467a9.483,9.483,0,0,0,6.789-2.823,3.026,3.026,0,0,1,2.122-.867h8.911a21.751,21.751,0,0,1,5.35,18.448H34.879A38.743,38.743,0,0,0,24.105,33.03l-2.86.812a35.735,35.735,0,0,1-6.531,1.218,1.847,1.847,0,1,0,.166,3.69h.166a38.246,38.246,0,0,0,7.25-1.365l2.86-.812a35.625,35.625,0,0,1,9.759-1.365H48.679c-.221.627-.48,1.236-.756,1.845H38.9a1.845,1.845,0,1,0,0,3.69h6.881a20.4,20.4,0,0,1-1.494,1.845H37.314a20.294,20.294,0,0,1-3.8-.369A23.19,23.19,0,0,0,18.607,44.21l-3.487,1.734A22.138,22.138,0,0,1,5.693,27.828ZM19.032,48.121l1.255-.627a19.464,19.464,0,0,1,12.49-1.66,23.5,23.5,0,0,0,4.538.443h2.73a21.991,21.991,0,0,1-21.013,1.845Z" transform="translate(-1.996 -2)"/></g></g><g transform="translate(1642.224 331.982)"><rect class="a" width="101" height="101" rx="25" transform="translate(-0.224 -0.167)"/><g transform="translate(24.588 24.564)"><path class="b" d="M51.812,42.587a1.845,1.845,0,0,0,1.845-1.845V37.273a3.911,3.911,0,0,0-3.911-3.911H46.277V5.819A3.819,3.819,0,0,0,42.458,2H24.138a1.845,1.845,0,1,0,0,3.69l18.449.129V33.362H13.069L13.2,5.69h3.561a1.845,1.845,0,1,0,0-3.69H13.2A3.819,3.819,0,0,0,9.379,5.819V33.362H5.911A3.911,3.911,0,0,0,2,37.273V49.745a3.911,3.911,0,0,0,3.911,3.911H49.745a3.911,3.911,0,0,0,3.911-3.911V48.121a1.845,1.845,0,0,0-3.69,0v1.623a.221.221,0,0,1-.221.221H29.673V37.052H49.745a.221.221,0,0,1,.221.221v3.468A1.845,1.845,0,0,0,51.812,42.587ZM25.983,49.966H5.911a.221.221,0,0,1-.221-.221V37.273a.221.221,0,0,1,.221-.221H25.983Z" transform="translate(-2 -2)"/><path class="b" d="M9,6.845V27.138a1.845,1.845,0,0,0,1.845,1.845H32.983a1.845,1.845,0,0,0,1.845-1.845V6.845A1.845,1.845,0,0,0,32.983,5H10.845A1.845,1.845,0,0,0,9,6.845ZM12.69,8.69H31.138v16.6H12.69Z" transform="translate(3.914 0.535)"/><path class="b" d="M12.845,28.69a1.845,1.845,0,1,0,0-3.69h0a1.845,1.845,0,1,0,0,3.69Z" transform="translate(5.604 17.431)"/><path class="b" d="M9.845,28.69a1.845,1.845,0,1,0,0-3.69h0a1.845,1.845,0,1,0,0,3.69Z" transform="translate(3.069 17.431)"/><path class="b" d="M25.845,25a1.845,1.845,0,1,0,1.845,1.845A1.845,1.845,0,0,0,25.845,25Z" transform="translate(16.587 17.431)"/><path class="b" d="M22.845,25a1.845,1.845,0,1,0,1.845,1.845A1.845,1.845,0,0,0,22.845,25Z" transform="translate(14.053 17.431)"/></g></g><g transform="translate(1517 383.002)"><rect class="a" width="100" height="99" rx="25" transform="translate(0 -0.187)"/><g transform="translate(26.38 23.599)"><path class="b" d="M43.261,27.878a1.07,1.07,0,0,0,.332,0,7.878,7.878,0,0,0,7.379-8.3,8.486,8.486,0,0,0-3.69-7.14v-6.7a1.845,1.845,0,0,0-3.69,0v5.535a1.07,1.07,0,0,0-.332,0A18.873,18.873,0,0,0,24.96,2.05a1.854,1.854,0,1,0,.369,3.69h1.66A14.962,14.962,0,0,1,39.9,12.86,29.7,29.7,0,0,0,26.989,9.429h-.3a27.673,27.673,0,0,0-12.379,3.118A13.947,13.947,0,0,1,18.742,8.1a1.84,1.84,0,1,0-1.956-3.118A17.858,17.858,0,0,0,10.7,11.274a1.845,1.845,0,0,0-.314,0,7.878,7.878,0,0,0-7.379,8.3,7.878,7.878,0,0,0,7.379,8.3,1.07,1.07,0,0,0,.332,0,17.821,17.821,0,0,0,6.586,6.66A14.113,14.113,0,0,0,8.54,47.507v4.354a1.845,1.845,0,0,0,1.845,1.845H43.593a1.845,1.845,0,0,0,1.845-1.845V47.507A13.892,13.892,0,0,0,45,44.02a1.845,1.845,0,1,0-3.561.922,10.848,10.848,0,0,1,.314,2.564v2.509H12.23V47.507A10.423,10.423,0,0,1,22.635,37.1h8.708a10.276,10.276,0,0,1,7.379,3.136,1.846,1.846,0,0,0,2.638-2.583,13.873,13.873,0,0,0-4.741-3.192,17.821,17.821,0,0,0,6.642-6.586Zm1.587-3.911a16.087,16.087,0,0,0,0-8.634,4.649,4.649,0,0,1,2.435,4.243,4.649,4.649,0,0,1-2.435,4.317ZM13.319,17.676c2.6-2.583,8.45-4.557,13.375-4.557h.3c7.379.111,14.759,4.225,14.759,6.457s-7.379,6.346-14.759,6.457c-5.055,0-11.069-1.937-13.652-4.557a3.062,3.062,0,0,1-1.088-1.845,3.062,3.062,0,0,1,1.07-1.956ZM6.7,19.576a4.7,4.7,0,0,1,2.417-4.317,16.124,16.124,0,0,0-.572,4.317,16.7,16.7,0,0,0,.59,4.317A4.649,4.649,0,0,1,6.7,19.576ZM26.989,33.412A15,15,0,0,1,14.3,26.6a27.8,27.8,0,0,0,12.416,3.118h.277A29.7,29.7,0,0,0,39.9,26.291,14.962,14.962,0,0,1,26.989,33.412Z" transform="translate(-2.993 -1.941)"/><path class="b" d="M15.845,24a1.845,1.845,0,1,0,0,3.69h3.69a1.845,1.845,0,1,0,0-3.69Z" transform="translate(6.306 16.695)"/><path class="b" d="M20.845,24a1.845,1.845,0,1,0,1.845,1.845A1.845,1.845,0,0,0,20.845,24Z" transform="translate(10.53 16.695)"/></g></g><g transform="translate(1642.224 208.868)"><rect class="a" width="101" height="102" rx="25" transform="translate(-0.224 -0.053)"/><g transform="translate(26.617 25.923)"><path class="b" d="M44.36,24.275h0l5.885-4.538a1.845,1.845,0,0,0,.332-2.583l-4.5-5.94h0l-4.52-5.867a1.84,1.84,0,0,0-2.583-.332l-5.867,4.52h0l-5.885,4.538-2.841-3.69a11.327,11.327,0,0,0-1.291-4.428,12.914,12.914,0,0,0-2.638-3.45A1.845,1.845,0,0,0,18.07,2.4L13.79,5.679a1.845,1.845,0,0,0,2.251,2.915l2.933-2.269a8.339,8.339,0,0,1,.849,1.31A8.929,8.929,0,0,1,20.6,9.811L13.938,14.9l-.867.683a8.929,8.929,0,0,1-1.845-1.31,7.877,7.877,0,0,1-1.07-1.218h0A1.845,1.845,0,0,0,7.905,10.2L6.577,11.213a1.845,1.845,0,0,0-.517,2.325A12.914,12.914,0,0,0,8.7,16.988a11.53,11.53,0,0,0,3.948,2.4l2.841,3.69L9.6,27.651h0L3.717,32.189a1.845,1.845,0,0,0-.332,2.583l4.5,5.959h0l4.52,5.83a1.845,1.845,0,0,0,1.218.719h.24a1.845,1.845,0,0,0,1.125-.387l11.752-9.058,1.144,1.476a7.38,7.38,0,0,0,4.907,2.841,8.45,8.45,0,0,0,.978,0,7.232,7.232,0,0,0,2.86-.609l2.638,3.45a5.522,5.522,0,0,0,3.911,8.523,4.965,4.965,0,0,0,.738,0,5.546,5.546,0,1,0,.7-11.069,5.7,5.7,0,0,0-2.435.258l-2.62-3.45q.174-.177.332-.369a1.847,1.847,0,0,0-3.1-2.011,3.45,3.45,0,0,1-.849.941,3.69,3.69,0,0,1-5.147-.775L19.6,22.283h0l-3.395-4.428L22.092,13.3l3.395,4.446h0l8.874,11.918h0l2.251,2.952a1.849,1.849,0,0,0,2.933-2.251L38.4,28.869l5.885-4.52ZM43.9,46.266h.24a1.858,1.858,0,0,1,.886,3.339,1.734,1.734,0,0,1-1.439.351,1.852,1.852,0,0,1,.314-3.69Zm-.314-26.049-2.269-2.97L44.268,14.9l2.269,2.97ZM39.748,9.147l2.288,2.97-2.97,2.2L36.8,11.343Zm-5.867,4.446,2.325,2.97-4.428,3.413h0l-2.269-2.97ZM19.989,29.016h0l-4.428,3.413-2.269-2.97,4.465-3.487ZM10.377,31.71l2.269,2.97L9.695,37.041,7.425,34Zm3.837,11.069-2.288-2.9,2.97-2.269,2.269,2.97Zm5.867-4.52-2.325-2.9,4.428-3.413h0l2.269,2.97ZM33.973,22.836h0l4.409-3.395,2.269,2.97-4.446,3.561Z" transform="translate(-3.003 -2.013)"/></g></g><g transform="translate(1517 505.008)"><rect class="a" width="100" height="100" rx="25" transform="translate(0 -0.193)"/><g transform="translate(24.351 23.348)"><path class="b" d="M11.328,16.6l-1.845.351a1.856,1.856,0,0,0-.978,3.1l1.273,1.31a1.974,1.974,0,0,1,0,2.767l-1.273,1.31a1.856,1.856,0,0,0,.978,3.1l1.845.351a2.14,2.14,0,0,1,1.845,2.288l-.221,1.753a1.864,1.864,0,0,0,2.583,1.919l1.7-.738a2.435,2.435,0,0,1,3.044.9l.922,1.55a1.845,1.845,0,0,0,3.173,0l.922-1.55a2.435,2.435,0,0,1,3.007-.9l1.7.738a1.864,1.864,0,0,0,2.583-1.919l-.221-1.753A2.14,2.14,0,0,1,34.2,28.885l1.845-.351a1.856,1.856,0,0,0,.978-3.1l-1.347-1.31a1.974,1.974,0,0,1,0-2.767l1.273-1.31a1.856,1.856,0,0,0-.978-3.1L34.131,16.6a2.14,2.14,0,0,1-1.845-2.288l.221-1.753a1.864,1.864,0,0,0-2.583-1.919l-1.7.738a2.435,2.435,0,0,1-3.044-.9l-.922-1.55a1.845,1.845,0,0,0-3.173,0l-.922,1.55a2.435,2.435,0,0,1-2.933.9l-1.7-.738a1.864,1.864,0,0,0-2.583,1.919l.221,1.753A2.14,2.14,0,0,1,11.328,16.6Zm1.845,3.265a5.922,5.922,0,0,0,3.579-4.741,6.143,6.143,0,0,0,5.922-1.845A6.143,6.143,0,0,0,28.6,15.122a5.922,5.922,0,0,0,3.579,4.741,5.645,5.645,0,0,0,0,5.756A5.922,5.922,0,0,0,28.6,30.361a6.107,6.107,0,0,0-5.922,1.845,6.088,6.088,0,0,0-4.446-2.085,5.9,5.9,0,0,0-1.384.166,5.922,5.922,0,0,0-3.579-4.741,5.645,5.645,0,0,0,0-5.682Z" transform="translate(2.91 3.084)"/><path class="b" d="M49.989,40.962A25.828,25.828,0,0,0,19.807,3.254a1.845,1.845,0,0,0,1.144,3.505,21.788,21.788,0,0,1,6.808-1.07A22.138,22.138,0,0,1,46.8,39.1a6.4,6.4,0,0,0-7.767,7.767A22.138,22.138,0,0,1,8.719,16.555a5.867,5.867,0,0,0,1.513.2A6.512,6.512,0,1,0,5.62,14.692,25.828,25.828,0,0,0,41.669,49.6,1.844,1.844,0,0,0,42,49.264a.59.59,0,0,0,.166,0,1.845,1.845,0,0,0,.7-2.509,2.767,2.767,0,1,1,3.69,1.07,1.844,1.844,0,0,0,.9,3.45,1.974,1.974,0,0,0,.9-.221,6.494,6.494,0,0,0,2.491-8.8A7.048,7.048,0,0,0,49.989,40.962ZM10.232,7.534A2.767,2.767,0,1,1,7.465,10.3,2.767,2.767,0,0,1,10.232,7.534Z" transform="translate(-2.083 -2.001)"/><path class="b" d="M21.69,7.845A1.845,1.845,0,0,0,19.845,6h0A1.845,1.845,0,1,0,21.69,7.845Z" transform="translate(11.366 1.377)"/><path class="b" d="M13.845,24a1.845,1.845,0,1,0,1.845,1.845A1.845,1.845,0,0,0,13.845,24Z" transform="translate(6.296 16.585)"/></g></g><g transform="translate(1517 18.096)"><rect class="a" width="100" height="99" rx="25" transform="translate(0 -0.282)"/><g transform="translate(24.351 26.622)"><path class="b" d="M53.415,24.289c0-10.165-11.586-18.448-25.828-18.448a34.869,34.869,0,0,0-4.834.351,5.535,5.535,0,0,0-9.925,2.933A19.482,19.482,0,0,0,2.4,20.027a1.845,1.845,0,0,0,1.2,2.417,2.066,2.066,0,0,0,.572.092,1.845,1.845,0,0,0,1.753-1.273,15.7,15.7,0,0,1,7.933-8.431A5.535,5.535,0,0,0,23.9,9.77a30.773,30.773,0,0,1,3.69-.24c12.213,0,22.138,6.623,22.138,14.759,0,4.225-2.749,8.21-7.527,11.069a6.439,6.439,0,0,0-10.811,3.487,32.341,32.341,0,0,1-3.8.2c-10.331,0-19.427-4.889-21.64-11.641a1.845,1.845,0,0,0-3.505,1.144c2.749,8.357,13.08,14.187,25.146,14.187a35.053,35.053,0,0,0,4.188-.277,6.439,6.439,0,0,0,12.232-3.948C49.983,35.008,53.415,29.824,53.415,24.289ZM18.362,11.375A1.845,1.845,0,1,1,20.207,9.53,1.845,1.845,0,0,1,18.362,11.375ZM37.733,42.737A2.767,2.767,0,1,1,40.5,39.97a2.767,2.767,0,0,1-2.767,2.767Z" transform="translate(-2.286 -4.005)"/><path class="b" d="M29.11,25.464a2.217,2.217,0,0,0,2.288,1.4c4.575-1.125,7.675-3.3,8.523-5.977A5.525,5.525,0,1,0,33,12.273a25.644,25.644,0,0,0-3.6-.886A30.386,30.386,0,0,0,24.5,11c-5.535,0-10.663,1.494-13.412,3.893a5.535,5.535,0,0,0,1.421,10.866,5.35,5.35,0,0,0,1.457-.221h0a22.36,22.36,0,0,0,3.561,1.218A29.518,29.518,0,0,0,24.5,27.6a1.845,1.845,0,1,0,0-3.69,26,26,0,0,1-6.014-.683l-1.162-.351A5.368,5.368,0,0,0,16.2,16.129a22.784,22.784,0,0,1,8.3-1.439,25.4,25.4,0,0,1,4.317.351,18.929,18.929,0,0,1,2.232.5,6.07,6.07,0,0,0-.092,1,5.535,5.535,0,0,0,3.505,5.147,14.888,14.888,0,0,1-3.948,1.55,1.845,1.845,0,0,0-1.4,2.232ZM10.661,20.224a1.845,1.845,0,1,1,1.845,1.845A1.845,1.845,0,0,1,10.661,20.224ZM36.489,14.69a1.845,1.845,0,1,1-1.845,1.845A1.845,1.845,0,0,1,36.489,14.69Z" transform="translate(1.725 1.904)"/><path class="b" d="M7.845,11h0A1.845,1.845,0,1,0,9.69,12.845,1.845,1.845,0,0,0,7.845,11Z" transform="translate(0.852 1.905)"/><path class="b" d="M28.845,8.69a1.845,1.845,0,1,0,0-3.69h0a1.845,1.845,0,1,0,0,3.69Z" transform="translate(18.594 -3.165)"/><path class="b" d="M12.845,26h0a1.845,1.845,0,1,0,1.845,1.845A1.845,1.845,0,0,0,12.845,26Z" transform="translate(5.076 14.577)"/></g></g><g transform="translate(1642.224 575.993)"><rect class="a" width="101" height="100" rx="25" transform="translate(-0.224 -0.178)"/><g transform="translate(24.588 24.063)"><path class="b" d="M41.827,12.727a1.845,1.845,0,0,0-1.476-1.254L33.58,10.384,30.592,4.075a1.845,1.845,0,0,0-3.358,0l-2.989,6.309L17.567,11.4a1.843,1.843,0,0,0-1.052,3.1l4.889,5.11-1.162,7.084a1.869,1.869,0,0,0,2.73,1.956l5.94-3.339,5.94,3.3a1.974,1.974,0,0,0,.9.221,1.845,1.845,0,0,0,1.845-2.14l-1.181-7.084L41.31,14.59a1.845,1.845,0,0,0,.517-1.863Zm-8.708,5.036a1.845,1.845,0,0,0-.5,1.587l.7,4.262L29.8,21.674a1.845,1.845,0,0,0-1.845,0L24.43,23.612l.793-4.335a1.845,1.845,0,0,0-.5-1.587l-3.044-3.1,4.1-.627A1.845,1.845,0,0,0,27.16,12.93l1.753-3.69,1.753,3.69a1.845,1.845,0,0,0,1.384,1.033l4.1.627Z" transform="translate(9.838 -1.279)"/><path class="b" d="M45.248,42.532A23.061,23.061,0,0,1,27.279,5.155a2.029,2.029,0,0,0,.553-.849.369.369,0,0,1,0-.129,3.507,3.507,0,0,0,0-.387h0A1.8,1.8,0,0,0,25.323,2.2,25.829,25.829,0,0,0,13.922,6a1.819,1.819,0,0,0,1.992,3.044,22.139,22.139,0,0,1,6.051-2.657,27.045,27.045,0,0,0-3.358,13.08A26.75,26.75,0,0,0,40.746,45.8,22.138,22.138,0,0,1,10.8,13.623a1.847,1.847,0,0,0-2.841-2.361A25.828,25.828,0,0,0,45.709,46.406a1.291,1.291,0,0,0,.24-.314,1.85,1.85,0,0,0-.7-3.561Z" transform="translate(-1.995 -2.065)"/></g></g><g transform="translate(1642.224 -32.924)"><g class="c" transform="translate(-0.224 -0.261)"><rect class="d" width="101" height="100" rx="25"/><rect class="e" x="0.5" y="0.5" width="100" height="99" rx="24.5"/></g><g transform="translate(24.468 24.081)"><path class="b" d="M27.828,2A25.828,25.828,0,0,0,6.335,13.549H6.225a1.734,1.734,0,0,0-.443.83,25.735,25.735,0,0,0,.184,27.156A1.848,1.848,0,1,0,9.1,39.58,22.138,22.138,0,0,1,5.69,29.673h3.69a18.449,18.449,0,0,0,32.71,9.759,1.845,1.845,0,1,0-2.786-2.38,14.759,14.759,0,0,1-26.1-7.379h29.26a13.6,13.6,0,0,1-.719,3.081,1.847,1.847,0,0,0,3.487,1.218,17.913,17.913,0,0,0,1.052-4.3h3.69A22.139,22.139,0,0,1,13.678,44.856,1.847,1.847,0,1,0,11.317,47.7,25.828,25.828,0,1,0,27.828,2ZM48.214,19.268l-1.328.664a1.4,1.4,0,0,1-1.218,0l-1.937-.978a5.387,5.387,0,0,0-1.033-.387l-2.177-.535a1.384,1.384,0,0,1-.978-.886,1.347,1.347,0,0,1,.24-1.291l3.247-4.077a21.935,21.935,0,0,1,5.184,7.49ZM27.828,5.69a22.139,22.139,0,0,1,2.73.184l-5.018,5.018a2.177,2.177,0,0,1-1.125.609L18.05,12.774a5.885,5.885,0,0,0-3.69,2.527,2.232,2.232,0,0,1-1.623.978,2.269,2.269,0,0,1-1.845-.646l-.867-.886a22.139,22.139,0,0,1,17.8-9.058ZM8,17.995l.258.24a5.885,5.885,0,0,0,4.169,1.734h.646a5.977,5.977,0,0,0,4.354-2.6,2.159,2.159,0,0,1,1.4-.959l6.365-1.273a5.867,5.867,0,0,0,3.026-1.623l6.512-6.494a.867.867,0,0,1,.111-.166A21.7,21.7,0,0,1,40.207,9.49l-3.321,4.059a5.073,5.073,0,0,0,2.73,8.062l2.2.553.258.092,1.937.959a5.073,5.073,0,0,0,4.538,0l.83-.406a22.32,22.32,0,0,1,.59,3.173H5.69A21.916,21.916,0,0,1,8,17.995Z" transform="translate(-2 -2)"/><path class="b" d="M12.845,19a1.845,1.845,0,1,0,1.845,1.845A1.845,1.845,0,0,0,12.845,19Z" transform="translate(5.604 12.362)"/><path class="b" d="M15.845,19a1.845,1.845,0,1,0,0,3.69h9.224a1.845,1.845,0,1,0,0-3.69Z" transform="translate(8.138 12.362)"/></g></g></g></svg>