<svg xmlns="http://www.w3.org/2000/svg" xmlns:xlink="http://www.w3.org/1999/xlink" width="685" height="685" viewBox="0 0 685 685"><defs><style>.a{opacity:0.83;}.b{fill:url(#a);}.c{fill:url(#b);}.d{fill:url(#c);}.e{fill:url(#d);}.f{fill:#4c387a;}</style><linearGradient id="a" x1="0.322" y1="0.116" x2="0.587" y2="1.15" gradientUnits="objectBoundingBox"><stop offset="0" stop-color="#a18dc2"/><stop offset="1" stop-color="#4c387a"/></linearGradient><linearGradient id="b" x1="0.5" x2="0.5" y2="1" gradientUnits="objectBoundingBox"><stop offset="0" stop-color="#4c387a"/><stop offset="1" stop-color="#3f2e66"/></linearGradient><linearGradient id="c" x1="0.5" x2="0.882" y2="0.682" gradientUnits="objectBoundingBox"><stop offset="0" stop-color="#4c387a"/><stop offset="1" stop-color="#36265a"/></linearGradient><linearGradient id="d" x1="0.5" x2="0.5" y2="1" gradientUnits="objectBoundingBox"><stop offset="0" stop-color="#4c387a"/><stop offset="1" stop-color="#311f5a"/></linearGradient></defs><g class="a" transform="translate(4244.5 -7045.188)"><path class="b" d="M-177.387-184.312a344.365,344.365,0,0,1-1.8,35.283c-16.557,161.75-145.67,290.182-307.75,305.655q-16.264,1.543-32.949,1.562c-189.148,0-342.5-153.351-342.5-342.5s153.351-342.5,342.5-342.5a345.752,345.752,0,0,1,49.065,3.491c118.105,16.943,216.75,94.143,263.811,199.44A341.408,341.408,0,0,1-177.387-184.312Z" transform="translate(-3382.113 7572)"/><circle class="c" cx="101.908" cy="101.908" r="101.908" transform="translate(-4120.296 7123.811)"/><circle class="d" cx="74.115" cy="74.115" r="74.115" transform="translate(-4018.388 7537.399)"/><circle class="e" cx="119.854" cy="119.854" r="119.854" transform="translate(-3877.643 7297.691)"/><circle class="f" cx="23.161" cy="23.161" r="23.161" transform="translate(-4120.296 7463.284)"/><circle class="f" cx="23.161" cy="23.161" r="23.161" transform="translate(-3754.353 7179.397)"/></g></svg>